<svg width="22px" height="13px" viewBox="0 0 22 13" fill="none" xmlns="http://www.w3.org/2000/svg" transform="rotate(0) scale(1, 1)">
<path d="M0.293031 6.70704C0.10556 6.51951 0.000244141 6.26521 0.000244141 6.00004C0.000244141 5.73488 0.10556 5.48057 0.293031 5.29304L5.29303 0.293041C5.48163 0.110883 5.73423 0.0100885 5.99643 0.0123669C6.25863 0.0146453 6.50944 0.119815 6.69485 0.305223C6.88026 0.490631 6.98543 0.741443 6.9877 1.00364C6.98998 1.26584 6.88919 1.51844 6.70703 1.70704L3.41403 5.00004H21C21.2652 5.00004 21.5196 5.1054 21.7071 5.29293C21.8947 5.48047 22 5.73482 22 6.00004C22 6.26526 21.8947 6.51961 21.7071 6.70715C21.5196 6.89468 21.2652 7.00004 21 7.00004H3.41403L6.70703 10.293C6.80254 10.3853 6.87872 10.4956 6.93113 10.6176C6.98354 10.7396 7.01113 10.8709 7.01228 11.0036C7.01344 11.1364 6.98813 11.2681 6.93785 11.391C6.88757 11.5139 6.81332 11.6255 6.71943 11.7194C6.62553 11.8133 6.51388 11.8876 6.39098 11.9379C6.26809 11.9881 6.13641 12.0134 6.00363 12.0123C5.87085 12.0111 5.73963 11.9836 5.61763 11.9311C5.49562 11.8787 5.38528 11.8026 5.29303 11.707L0.293031 6.70704Z" fill="#1975d2"/>
</svg>